<svg width="35" height="36" viewBox="0 0 35 36" fill="none" xmlns="http://www.w3.org/2000/svg">
<path d="M34.0973 35H26.8973V26.7H34.0973V35Z" fill="#1F2A33"/>
<path d="M12.1 9.4C13.8667 9.4 15.3833 9.63333 16.65 10.1C17.9167 10.5333 18.95 11.2667 19.75 12.3C20.5833 13.3 21.2 14.65 21.6 16.35C22 18.0167 22.2 20.0833 22.2 22.55C22.2 25.0167 21.9833 27.0833 21.55 28.75C21.1167 30.4167 20.4 31.7667 19.4 32.8C18.4333 33.8 17.15 34.5167 15.55 34.95C13.9833 35.3833 12.05 35.6 9.75 35.6C9.01667 35.6 8 35.55 6.7 35.45C5.4 35.3833 3.8 35.2667 1.9 35.1L0 34.9V0H6.7V10.75C8.86667 9.85 10.6667 9.4 12.1 9.4ZM9.75 29.6C10.85 29.6 11.7667 29.4833 12.5 29.25C13.2333 28.9833 13.8167 28.5667 14.25 28C14.6833 27.4 14.9833 26.6333 15.15 25.7C15.3167 24.7333 15.4 23.55 15.4 22.15C15.4 17.65 14 15.4 11.2 15.4C9.8 15.4 8.53333 15.5667 7.4 15.9L6.7 16.05V29.4C7.46667 29.4667 8.1 29.5167 8.6 29.55C9.1 29.5833 9.48333 29.6 9.75 29.6Z" fill="#1F2A33"/>
</svg>
